<svg fill="#000000" xmlns="http://www.w3.org/2000/svg" viewBox="0 0 128 128" width="64px" height="64px"><path d="M56.6,104c10.3,0,19.7-3.9,26.9-10.3l2.3,2.3l-2.1,2.2c-1.2,1.2-1.2,3.1,0,4.3l18,18.2c0.6,0.6,1.3,0.9,2.1,0.9s1.6-0.3,2.1-0.9l8-8.1c1.1-1.2,1.1-3.1-0.1-4.2l-18-18.2c-0.6-0.6-1.3-0.9-2.1-0.9s-1.6,0.3-2.1,0.9l-2.1,2.2L87.2,90c6.3-7.3,10.2-16.8,10.2-27.2c0-22.7-18.3-41.2-40.8-41.2c-22.5,0-40.8,18.5-40.8,41.2C15.8,85.6,34.1,104,56.6,104z M93.8,96.6l13.8,14l-3.8,3.8l-13.8-14L93.8,96.6z M56.6,27.7c19.2,0,34.8,15.8,34.8,35.2S75.8,98,56.6,98S21.8,82.3,21.8,62.9S37.4,27.7,56.6,27.7z"/><path d="M37.1 58.6c.3.1.6.2.9.2 1.1 0 2.1-.7 2.5-1.8 2.4-6.9 9-11.6 16.2-11.6 1.4 0 2.6-1.2 2.6-2.6s-1.2-2.6-2.6-2.6c-9.5 0-18 6.1-21.2 15.1C35 56.6 35.7 58.2 37.1 58.6zM37.8 70.5c1.4 0 2.6-1.2 2.6-2.6l0-.3c0-1.5-1.1-2.7-2.6-2.7 0 0 0 0-.1 0-1.4 0-2.6 1.1-2.6 2.6l0 .4C35.2 69.3 36.3 70.5 37.8 70.5z"/></svg>